<svg width="683" height="683" viewBox="0 0 683 683" fill="none" xmlns="http://www.w3.org/2000/svg">
<path d="M309.733 55.2C269.467 72.4 271.067 71.4667 267.067 78.2667C258.8 92.4 268.4 109.467 284.533 109.6C287.467 109.6 290.8 109.467 291.733 109.2C292.667 108.8 296.267 115.6 301.333 127.333C305.733 137.6 309.333 146.267 309.333 146.8C309.333 147.2 302.667 150.4 294.667 153.867C278.4 160.933 273.467 165.333 270.667 175.467C268.4 183.333 269.467 187.6 279.2 210.4L287.6 230L229.467 230.8C171.867 231.6 171.2 231.6 158 235.067C133.067 241.733 111.467 254.133 93.6 272C76.2667 289.333 64 310.667 57.6 334.667C54.6667 345.6 54.2667 350.267 54.1333 368C54.1333 385.067 54.5333 390.667 57.0667 400.4C69.7333 450.667 107.333 489.067 157.2 502.267C168.933 505.467 172.8 505.733 205.067 506.4L240 506.933V541.333V575.867L203.067 576.267C168 576.667 165.733 576.8 160.533 579.6C153.6 583.333 146.133 591.6 144 598C139.6 611.333 145.733 627.733 157.867 635.333L164.4 639.333H395.733C607.2 639.333 627.2 639.2 628.4 637.2C629.467 635.6 627.067 628.4 618.667 607.2C612.667 591.867 606.667 578.533 605.6 577.6C604 576.4 577.867 576 485.067 576H366.667V541.333V506.667L473.467 506.4C571.333 506 580.533 505.867 581.733 503.733C582.8 502.133 580.8 495.067 572.8 473.067C567.067 457.467 561.6 443.333 560.533 441.6C558.667 438.8 558 438.667 534.667 438.667H510.667V424.267C510.667 414.8 510.133 409.333 509.067 408.267C506.8 406 409.2 406 406.933 408.267C405.867 409.333 405.333 414.8 405.333 424.267V438.667H386.133H366.933L364 432.667C360.667 425.6 354.933 420.933 347.333 418.667C343.6 417.6 328.933 417.333 299.733 417.6L257.6 418L251.733 422C248.267 424.533 244.8 428.4 242.8 432.4L239.733 438.667H220C196.133 438.667 188.933 437.467 176.267 431.2C152.667 419.6 138.133 393.867 140.533 367.733C143.067 339.2 162.933 316.667 190.933 310C197.733 308.4 211.2 308 260 308H320.8L331.2 332.933C343.867 363.2 345.333 365.867 352.4 369.867C360.533 374.533 365.467 375.2 374.133 372.667C378.267 371.467 381.733 370.667 381.867 370.933C382.133 371.2 383.6 374.667 385.2 378.667C386.933 382.667 389.333 387.067 390.533 388.533C393.333 391.733 399.2 394.667 402.667 394.667C407.467 394.667 477.733 364.133 481.6 360.4C487.2 355.067 487.733 349.333 483.467 339.2C481.6 334.4 480 330.133 480 329.467C480 328.8 481.733 327.6 484 326.667C493.6 322.667 501.2 309.067 499.467 298.667C498.8 294.4 431.867 135.333 426.267 124.667C425.2 122.4 422.533 119.067 420.4 117.067C411.6 108.667 401.067 108.4 382.933 116.133C375.867 119.2 369.6 121.867 369.2 122.133C368.667 122.4 364.533 114 360 103.333L351.733 84.1333L355.867 80.5333C361.6 75.8667 364 70.6667 364 63.6C364 53.3333 355.6 44.1333 345.2 43.2C340.133 42.6667 335.333 44.2667 309.733 55.2ZM350 56.6667C354 60.5333 354.533 67.8667 350.933 71.0667C346.933 74.8 289.467 98.6667 284.667 98.6667C276.133 98.6667 271.733 89.3333 277.067 82.6667C279.733 79.4667 338.8 53.4667 343.733 53.3333C345.467 53.3333 348.267 54.8 350 56.6667ZM349.733 105.6C353.867 115.333 357.333 124.133 357.6 125.067C357.867 126.133 351.2 129.733 339.333 134.8C329.2 139.067 320.4 142.667 320 142.667C318.4 142.667 303.6 105.2 304.8 104.133C306 102.933 339.867 88.1333 341.467 88C341.867 88 345.6 96 349.733 105.6ZM411.6 123.467C413.333 124.533 415.467 126.667 416.533 128.4C420.933 135.333 489.333 298.8 489.333 302.4C489.333 304.533 488 308.267 486.267 310.8C483.733 314.533 479.467 316.8 458 326.133C441.067 333.333 432.4 336.533 431.733 335.467C431.333 334.667 413.733 292.533 392.667 242C371.6 191.333 353.6 148.133 352.667 145.733L350.933 141.6L371.733 132.533C403.333 118.933 404 118.8 411.6 123.467ZM383.067 246.933L422.267 341.2L397.467 351.733C383.867 357.6 371.333 362.8 369.6 363.333C365.733 364.533 358.4 362 355.067 358.267C351.867 354.8 280 186.4 280 182.4C280 178.267 284 170.8 287.2 169.067C288.667 168.133 301.467 162.533 315.333 156.533L340.667 145.6L342.267 149.2C343.067 151.067 361.467 195.067 383.067 246.933ZM304.133 269.333L315.733 296.667L252.933 297.333C196.267 298 189.333 298.267 183.333 300.533C155.333 310.8 136.8 331.2 131.067 357.867C124.133 390.533 141.2 426 170.933 440.533C184.667 447.333 195.6 449.333 219.733 449.333H240V472.667V496H212.133C180.933 496 168.533 494.667 152.667 489.733C132 483.333 114.8 472.133 97.7333 454.267C66.9333 421.867 56.4 374.133 70.2667 330C76.5333 310.267 86.5333 293.867 100.933 279.733C116.933 264 129.067 256.133 148.133 249.2C167.067 242.267 176.133 241.6 237.333 241.733L292.667 242L304.133 269.333ZM473.333 341.467C475.6 347.333 476.133 350.133 475.2 351.733C474.4 352.933 457.867 360.667 438.267 369.067C411.867 380.267 402.133 383.867 400.533 382.933C398.4 381.733 391.333 366.933 392.267 365.867C393.2 365.067 467.333 333.6 468.667 333.467C469.467 333.333 471.467 336.933 473.333 341.467ZM500 428V438.667H458H416V428V417.333H458H500V428ZM347.2 430C356.267 434.267 356 432.267 356 507.867V576H303.333H250.667V508C250.667 432.933 250.533 434.4 258.933 430.267C265.333 427.067 340.667 426.933 347.2 430ZM560.533 471.067C564.933 482.933 568.667 493.467 569.067 494.267C569.467 495.6 548.8 496 468.133 496H366.667V472.667V449.333H459.733H552.667L560.533 471.067ZM607.467 608L615.733 628.667L394.8 629.067C273.333 629.2 172.133 629.067 169.733 628.667C164.667 627.733 158 622.533 155.333 617.2C149.733 606.667 156.133 591.467 167.467 588C169.6 587.467 267.6 586.933 385.2 587.067L599.2 587.333L607.467 608Z" fill="#4392F1"/>
</svg>
