<svg width="683" height="683" viewBox="0 0 683 683" fill="none" xmlns="http://www.w3.org/2000/svg">
<path d="M449.867 44.5334C437.6 49.8667 435.2 67.3334 445.733 75.2001C457.733 84.0001 472.933 77.4667 474.4 62.8001C475.733 48.5334 462.8 38.9334 449.867 44.5334ZM461.6 55.6001C464.267 58.0001 464.8 64.0001 462.4 66.4001C460.133 68.6667 453.867 68.4001 451.467 65.8667C448.8 63.2001 448.8 60.1334 451.467 56.2667C453.867 52.8001 458.133 52.5334 461.6 55.6001Z" fill="#4392F1"/>
<path d="M476.933 86.0001C470.133 88.2667 468.533 90.0001 466 96.5334C460.4 111.2 474.4 125.333 489.067 119.733C502 114.8 504 94.5334 492.133 87.7334C486.667 84.5334 482.4 84.0001 476.933 86.0001ZM486.4 96.8001C491.867 100.533 489.067 110.667 482.533 110.667C479.467 110.667 474.667 106.133 474.667 103.333C474.667 101.067 480.4 94.6667 482.267 94.6667C482.933 94.6667 484.8 95.6001 486.4 96.8001Z" fill="#4392F1"/>
<path d="M430 115.2C424.133 117.733 416.267 127.067 415.2 132.667C412 150.133 422 165.067 438 166.4C447.333 167.2 453.067 165.067 459.2 158.8C471.867 145.867 468.533 123.733 453.067 116.133C446.267 112.933 436.133 112.533 430 115.2ZM450.533 127.467C462.267 137.2 455.6 156 440.4 156C435.333 156 433.733 155.333 429.867 151.467C425.867 147.467 425.333 146.133 425.333 140C425.333 133.867 425.867 132.533 429.867 128.533C435.867 122.533 444.267 122.133 450.533 127.467Z" fill="#4392F1"/>
<path d="M150.133 156.267C148.267 158.8 148 165.2 148 199.467V239.867L128.8 240.267C111.867 240.667 109.067 240.933 105.867 243.467C96.2667 250.533 93.4667 261.867 98.9333 271.2C104.267 280.267 108.667 281.867 129.733 282.4L148 282.933V459.333C148 618 148.267 636 150.133 637.867C152 639.733 173.6 640 367.867 640C533.733 640 583.867 639.6 585.067 638.4C586 637.467 586.667 635.867 586.667 634.667C586.667 633.6 581.333 624.933 574.933 615.333L563.333 598L541.067 597.6L518.667 597.333V582.667C518.667 563.867 518.8 564 500.533 564H486.667L485.867 560.267C484.667 555.2 479.6 546.667 475.067 542.4C467.867 535.467 459.333 532.667 445.333 532.667C431.333 532.667 422.8 535.467 415.6 542.4C411.067 546.667 406 555.2 404.8 560.267L404 564H390.133C371.867 564 372 563.867 372 582.8V597.333H302H232V440V282.667H308H384V302.533C384 313.6 383.333 325.6 382.4 329.6C381.2 334.4 372.4 351.2 353.467 384C316.667 447.867 316 449.333 316 457.6C316 461.333 316.667 466.667 317.6 469.467C319.467 476.133 326.8 484.667 333.467 488C338.4 490.533 341.733 490.667 436 490.667C515.067 490.667 534.267 490.267 537.733 488.8C543.6 486.4 550.533 479.333 553.467 472.667C556.267 466.667 556.8 454.533 554.533 448.133C553.733 445.867 539.333 419.6 522.533 389.867C502.267 354.267 491.2 333.333 490 328.267C488.667 323.333 488 314.133 488 301.733V282.667H491.733C503.333 282.667 514.133 270.533 512.933 259.067C511.867 248.667 502.4 240 492 240H488V224.933C488 210.533 488.133 209.6 491.333 206.667C497.867 200.533 498.267 188.933 492.4 182.4C486.8 176.133 485.467 176 435.733 176C391.467 176 388.4 176.133 384.4 178.667C378.933 182 376 187.733 376 195.2C376 200 376.8 202.133 380 205.733C383.867 210.267 384 210.667 384 225.2V240H308H232V198.267C232 167.6 231.6 156.133 230.4 154.933C229.2 153.733 218.533 153.333 190.533 153.333C152.4 153.333 152.133 153.333 150.133 156.267ZM221.333 202V240H190H158.667V202.933C158.667 182.533 159.067 165.333 159.6 164.933C160 164.4 174.133 164 190.933 164H221.333V202ZM485.2 190.8C486.933 194 486.933 194.667 484.933 197.867L482.667 201.333H436.267C402 201.333 389.467 200.933 388.267 199.733C385.867 197.333 386.267 189.733 389.067 188.133C390.533 187.2 407.733 186.8 437.333 187.067L483.2 187.333L485.2 190.8ZM477.333 226V240H436H394.667V226V212H436H477.333V226ZM499.333 254C503.6 258.133 503.6 262.8 499.467 267.6L496.267 271.333L306.4 271.733C172.667 271.867 115.6 271.6 113.2 270.533C106.4 267.867 104.8 259.067 110 254L113.2 250.667H304.667H496.133L499.333 254ZM221.333 440V597.333H190H158.667V440V282.667H190H221.333V440ZM477.333 301.867C477.333 324.933 478.667 332.533 484.533 344.533L489.067 353.733L472.8 352.933C464 352.533 450.667 350.933 443.333 349.333C423.333 344.933 412.667 344 400.267 345.6C394.133 346.267 388.933 346.667 388.533 346.4C388.267 346.133 389.333 342.533 390.933 338.533C393.333 332.4 393.867 327.867 394.4 306.933L394.933 282.667H436.133H477.333V301.867ZM451.333 360.667C462.667 362.533 476.533 364 483.467 364H495.6L520 406.933C542 445.867 544.533 450.667 545.067 457.467C545.733 465.733 543.867 470.533 538 476L534.4 479.333H436H337.6L334 476C326.8 469.467 324.533 457.467 328.8 448.933C330 446.533 341.733 426 354.8 403.2L378.667 361.733L385.733 359.6C389.467 358.4 393.867 357.2 395.333 356.8C401.333 355.333 432.533 357.467 451.333 360.667ZM462.267 546.4C467.867 549.333 472.267 554.267 474.667 560.533L476 564H445.333C428.4 564 414.667 563.733 414.667 563.333C414.667 562.933 415.867 560.267 417.333 557.333C420.4 551.333 426.667 546.133 433.333 544.133C440.667 542 455.733 543.067 462.267 546.4ZM508 585.333V596H445.333H382.667V585.333V574.667H445.333H508V585.333ZM564 618C567.6 623.467 570.667 628.267 570.667 628.667C570.667 629.067 478 629.333 364.667 629.333H158.667V619.6C158.667 614.133 159.067 609.333 159.6 608.933C160 608.4 249.733 608 358.8 608H557.2L564 618Z" fill="#4392F1"/>
</svg>
