<svg width="683" height="683" viewBox="0 0 683 683" fill="none" xmlns="http://www.w3.org/2000/svg">
<path d="M478.667 45.6C468 50.9333 463.867 64 469.333 74.6667C473.467 82.6667 479.067 86 488.8 86C495.6 86 497.6 85.4667 501.6 82.4C514.4 72.5333 512.533 51.7333 498.133 45.2C490.933 41.8667 485.867 42 478.667 45.6ZM496.133 57.2C500.267 61.3333 500.933 65.0667 498.4 69.7333C496.133 74 493.2 75.8667 488.667 75.8667C482.4 75.8667 477.333 70.5333 477.333 64C477.333 60 484.4 53.3333 488.667 53.3333C490.8 53.3333 493.733 54.9333 496.133 57.2Z" fill="#4392F1"/>
<path d="M314.267 65.8666C307.867 68.1333 304.8 70.9333 302.133 76.6666C297.733 86 300.8 98.5333 309.067 104.667C311.2 106.267 315.467 107.467 320.267 107.733C326.933 108.267 328.8 107.867 333.333 104.8C344.4 97.6 346.667 83.2 338.533 72.8C333.067 65.7333 322.667 62.8 314.267 65.8666ZM325.867 76C330 77.6 333.733 84.4 332.533 88.4C328.667 101.2 310.533 99.8666 310.667 86.8C310.8 81.6 312.4 78.6666 316.667 76.2666C320 74.4 321.6 74.2666 325.867 76Z" fill="#4392F1"/>
<path d="M515.333 98C500.933 103.067 495.467 120.8 504.933 132C514.267 143.067 529.733 143.067 539.067 132C548.933 120.4 542.4 101.333 527.333 97.4667C520.4 95.7333 521.867 95.7333 515.333 98ZM530.4 111.467C536.8 118.667 531.733 129.333 522 129.333C512.4 129.333 507.467 119.067 513.333 111.6C517.867 105.867 525.2 105.867 530.4 111.467Z" fill="#4392F1"/>
<path d="M343.867 121.733C341.467 123.333 338 126.8 336.267 129.333C333.6 133.2 333.2 135.333 333.6 141.6C334.267 151.067 338.8 157.467 347.2 160.667C366.533 168.133 384.533 145.6 373.067 128.267C366.667 118.667 352.933 115.6 343.867 121.733ZM362.267 132.267C366.267 136.8 367.067 140.667 364.8 145.067C362.533 149.6 356.133 152.667 352 151.333C344 148.8 341.333 138.533 347.333 132.667C351.6 128.267 358.533 128.133 362.267 132.267Z" fill="#4392F1"/>
<path d="M454 135.867C446.8 139.067 438.133 149.2 436 156.667C429.067 181.2 450.133 203.733 475.067 198.4C489.067 195.467 500.133 181.6 500.133 166.933C500.267 147.467 486.4 133.333 467.467 133.333C462.533 133.333 457.2 134.4 454 135.867ZM477.067 145.867C484.8 149.867 489.6 157.467 489.6 166C489.6 185.867 467.733 195.733 452.8 182.667C446.8 177.333 444.8 172.133 445.6 163.867C446.4 156.4 449.333 151.467 456 146.933C461.2 143.467 471.467 142.933 477.067 145.867Z" fill="#4392F1"/>
<path d="M289.6 156.4C283.067 158.4 272.667 168.4 270 174.933C267.333 181.733 267.2 194.133 269.733 200.267C276.267 216 293.333 224.267 309.467 219.467C333.2 212.533 341.2 182.933 324.267 164.8C316.133 156.267 301.333 152.533 289.6 156.4ZM310.667 168C317.867 171.6 321.733 177.6 322.4 186.133C323.2 195.6 318.533 203.867 310.267 207.867C303.333 211.2 298.933 211.333 292.4 208.667C282.8 204.667 278.533 198.267 278.4 188.133C278.267 170.8 295.333 160.133 310.667 168Z" fill="#4392F1"/>
<path d="M394.8 214.8C388 216.8 384.133 219.867 381.2 225.467C376.4 235.067 378.8 246.267 386.933 252.533C389.467 254.4 392.267 256 393.067 256C394.267 256 394.667 285.333 394.667 372.667C394.667 436.8 394.4 489.333 394.133 489.333C392.667 489.333 365.2 438.133 363.467 432.133C361.6 425.867 361.333 414.4 361.333 350.933V276.933L365.867 271.867C373.333 263.6 373.867 252 367.067 244C360.267 235.867 362 236 294.667 236C226 236 226.933 235.867 220.533 245.2C214.533 254.133 217.2 270.4 225.467 274.8C228 276.133 228.133 277.867 227.733 353.067L227.333 430L223.867 438.267C221.867 442.933 202.533 477.067 180.933 514.267C156.133 556.933 140.933 584.4 139.867 588.4C135.333 606.667 144.8 626.133 161.867 634.133L168.667 637.333L294 637.2C390.8 637.2 420.4 636.8 424 635.467C427.867 634 429.733 634.133 436.667 636.267C466.933 645.867 505.333 634.8 519.733 612.4C528.4 598.933 528 607.067 528 423.333V256.4L532.933 253.2C539.2 249.2 543.467 239.867 542.133 232.933C540.933 226.667 536.267 220 530.667 216.8C526.133 214.133 523.867 214 462.667 213.733C424 213.6 397.6 214 394.8 214.8ZM522.8 225.333C528.533 226.933 530.4 228.8 531.467 234.4C532.133 237.867 531.6 239.2 528.267 242.667L524.267 246.667H460H395.867L392.667 243.333C386.667 237.467 389.333 227.867 397.733 225.467C403.733 223.733 516.667 223.6 522.8 225.333ZM357.467 249.2C361.867 252.8 361.867 261.867 357.467 265.467C354.533 267.867 351.2 268 294.267 268C234.4 268 234.133 268 231.067 265.067C227.067 261.333 226.933 254 230.933 249.733L233.733 246.667H294.133C351.2 246.667 354.533 246.8 357.467 249.2ZM517.333 285.333V313.333L511.067 313.6C498 314.133 485.467 313.067 465.333 309.733C441.733 305.867 421.333 305.333 411.733 308.4L405.333 310.4V283.867V257.333H461.333H517.333V285.333ZM350.933 357.6C351.333 434.533 351.333 435.467 354.267 442.667C356 446.667 359.333 453.2 361.867 456.933L366.533 464H353.6C340.267 464 331.067 462.8 296.667 456.667C273.2 452.533 246.667 451.733 235.067 454.933C231.2 456 228 456.667 228 456.4C228 456.133 229.467 453.733 231.333 450.933C238.4 440.133 238.667 436.4 238.667 355.067V280H294.667H350.533L350.933 357.6ZM465.333 320.933C478.267 323.067 491.867 324.4 501.6 324.533L517.333 324.667V457.467C517.333 610.8 518.267 599.333 504.933 612.667C492.667 624.933 476.133 630.267 455.333 628.933C437.6 627.733 421.2 620 413.333 609.2C405.067 597.733 405.333 603.333 405.333 455.867V321.6L410.4 319.867C416.4 317.867 430.533 316.4 438.667 317.067C442 317.333 454 319.067 465.333 320.933ZM296.267 467.867C326.667 473.733 336.267 474.8 355.333 474.533L372.667 474.4L383.6 493.333L394.533 512.133L394.933 554.4C395.333 594.933 395.467 596.933 398.4 604.267C400.133 608.667 404.4 615.2 408.267 619.333L414.933 626.667H292.8C193.333 626.667 169.733 626.267 166.267 624.933C160.4 622.4 152.533 613.333 150.8 607.067C148.933 600.533 148.933 593.2 150.8 588.4C151.467 586.4 166.933 559.333 184.933 528.4C209.333 486.667 218.667 471.867 221.2 470.667C238.133 462.933 264.933 461.867 296.267 467.867Z" fill="#4392F1"/>
</svg>
