<svg width="683" height="683" viewBox="0 0 683 683" fill="none" xmlns="http://www.w3.org/2000/svg">
<path d="M276 44.7999C266.667 48.7999 261.333 56.2666 261.333 65.3332C261.333 74.1332 267.867 83.3332 276.4 86.5332C286.4 90.3999 301.2 86.3999 306.8 78.3999C309.867 74.1332 311.467 64.9332 310.133 59.4666C307.067 47.0666 288.933 39.1999 276 44.7999ZM293.467 55.5999C308 64.2666 294 83.1999 278.8 75.3332C276.667 74.2666 274.267 71.5999 273.467 69.3332C269.733 58.3999 282.8 49.3332 293.467 55.5999Z" fill="#4392F1"/>
<path d="M477.6 73.3333C471.867 76.9333 468 83.4666 468 89.9999C468 101.333 476.933 109.333 489.467 109.333C501.867 109.333 511.067 101.067 511.067 89.9999C511.067 83.0666 508.267 78.3999 501.333 73.5999C495.467 69.7332 483.867 69.4666 477.6 73.3333ZM497.333 83.9999C503.067 89.7333 498.267 98.6666 489.2 98.6666C485.333 98.6666 483.6 97.8666 481.467 95.1999C479.867 93.1999 478.667 90.9333 478.667 89.9999C478.667 89.0666 479.867 86.7999 481.467 84.7999C484.933 80.3999 493.2 79.8666 497.333 83.9999Z" fill="#4392F1"/>
<path d="M314.667 100.8C301.467 106.533 296.133 120.133 302.8 131.867C311.333 147.2 336.133 148.133 346 133.6C349.867 128 350.533 118.133 347.467 112.267C341.6 100.933 326.533 95.5999 314.667 100.8ZM335.067 114.667C339.2 119.333 339.467 121.2 336.667 126.667C334.133 131.6 330.933 133.333 324.267 133.333C310.667 133.333 306.8 115.867 319.333 110.533C324.133 108.533 331.067 110.267 335.067 114.667Z" fill="#4392F1"/>
<path d="M510.667 120.133C503.333 124.4 500.667 128.933 500.667 136.933C500.667 148.667 509.333 156.667 522 156.533C533.867 156.533 542.4 149.2 543.6 138.267C544.4 131.733 540.667 125.2 533.467 120.4C527.467 116.4 517.2 116.267 510.667 120.133ZM529.333 130.667C535.333 136.667 530.8 145.867 522 145.867C516.267 145.867 512 142.133 512 137.067C512 131.867 516.267 128 522 128C524.933 128 527.733 129.067 529.333 130.667Z" fill="#4392F1"/>
<path d="M247.467 139.333C235.333 143.6 225.2 155.733 224.267 167.333C222.533 187.733 236.933 203.467 258.933 205.067C284.933 206.933 304.933 185.467 298.267 162.667C295.333 152.933 289.733 146.4 279.733 141.467C272.933 138 270.133 137.333 262.133 137.333C256.933 137.467 250.4 138.267 247.467 139.333ZM274.667 150.667C286.4 156.667 291.067 170 285.467 181.067C275.2 201.067 242 198 236.133 176.4C233.333 166.533 239.733 154.4 250 149.867C256.133 147.2 268.533 147.6 274.667 150.667Z" fill="#4392F1"/>
<path d="M453.867 152.533C443.2 157.467 436 168.4 436 179.467C436 185.467 441.867 196.667 447.2 200.667C460.267 210.667 478.8 210.533 490.667 200.267C497.867 194.267 501.333 187.067 501.333 178.667C501.333 170.267 499.067 164.533 493.2 158.8C483.333 148.933 467.2 146.4 453.867 152.533ZM479.6 162.267C484.533 164.533 488.667 170.133 490 176.267C491.333 182 486.4 190.933 480.133 194.4C462 204.533 440.4 186.4 450.667 169.6C456.267 160.533 469.067 157.2 479.6 162.267Z" fill="#4392F1"/>
<path d="M397.867 222.533C385.6 230 383.6 243.333 393.333 252.667L397.333 256.533V320.133C397.333 361.867 396.8 385.067 395.867 387.6C393.867 392.933 388.667 398 377.333 405.733C367.333 412.533 351.6 427.067 344.933 436L341.333 440.667L338.8 437.333C337.333 435.6 335.067 431.067 333.733 427.333C331.6 421.2 331.333 414 330.933 342.4L330.533 264.267L334.667 261.333C339.467 257.867 344 249.6 344 244.133C344 235.333 338.933 228 330 223.867C325.067 221.6 319.867 221.333 254.133 221.333C185.067 221.333 183.333 221.333 177.733 224.133C163.2 231.2 161.067 252.267 174 260.8L177.333 262.933V341.867C177.2 420 177.2 420.8 174.267 429.333C172.133 435.6 158.267 458.133 124.4 510.267C74.4 587.467 73.4667 589.2 75.0667 602.933C76.8 616.933 85.2 628.4 98.4 634.933L107.333 639.333L252.267 639.733L397.333 640L404.933 637.2C414.533 633.6 418 633.6 431.333 636.533C469.333 644.933 514.533 636.933 546.933 616.133C559.2 608.267 576.933 591.6 584.667 580.667C592.533 569.6 599.333 555.6 603.6 541.733C606.667 531.333 607.067 527.867 607.067 510.667C607.067 488.133 604.667 477.2 596 458.8C585.867 437.867 569.733 419.467 549.2 405.733C537.333 397.6 531.333 391.2 529.467 384.4C528.533 381.2 528 356.533 528 317.733C528 256.933 528 256.133 530.8 254.667C538.4 250.533 541.067 237.2 535.6 229.2C529.467 219.867 530.267 220 462.667 220C405.6 220 401.733 220.133 397.867 222.533ZM524 233.067C527.6 236 527.867 241.733 524.667 245.333C522.4 247.867 520.267 248 463.067 248C405.733 248 403.867 247.867 401.333 245.333C399.867 243.867 398.667 241.2 398.667 239.333C398.667 237.467 399.867 234.8 401.333 233.333C403.867 230.8 405.733 230.667 462.533 230.667C517.067 230.667 521.2 230.8 524 233.067ZM325.733 233.467C330.133 235.467 332.267 239.867 331.733 245.333C331.467 248.8 330.267 250.667 326.8 252.933L322.133 256.133L253.2 255.733C186.4 255.333 184.133 255.2 181.333 252.667C176.933 248.667 175.6 244.267 177.467 239.733C180.667 232 179.867 232.133 254.267 232C301.6 232 323.6 232.4 325.733 233.467ZM517.067 316.933L517.333 374.667L514 375.467C508.4 376.8 488.8 375.2 465.333 371.333C447.733 368.4 440.4 367.867 428.667 368.4C420.667 368.667 412.933 369.467 411.733 370C409.467 370.933 409.333 367.733 409.333 314.8V258.667L463.067 258.933L516.667 259.333L517.067 316.933ZM320.267 346.267L320.667 426L324.267 434.533C326.267 439.2 329.467 444.933 331.2 447.333C334 450.933 334.267 452 332.8 454.8C331.2 457.867 330.8 458 316.933 457.867C299.867 457.6 281.333 455.6 252.667 451.067C226.8 447.067 201.733 446.533 186.667 449.867C181.2 451.067 176.533 452 176.267 452C176.133 452 177.467 449.733 179.333 446.8C181.2 444 184.133 438.4 185.733 434.533C188.667 427.467 188.667 426.267 189.067 346.933L189.467 266.667H254.667H319.867L320.267 346.267ZM465.867 383.2C483.6 387.333 499.333 388.667 509.733 386.933L517.333 385.733L519.867 391.2C523.467 399.467 529.867 406 542 414.133C553.733 421.867 569.6 437.067 576.133 446.667C589.2 466 594.667 482.667 595.6 505.333C596.4 524.933 593.733 538.8 586 555.467C558 616.267 479.867 645.2 412.267 620C356.933 599.333 323.6 546.667 332 493.333C336.933 462.667 355.867 434 383.867 414.8C399.467 404.133 406 396.533 408.533 386.267C410.667 377.2 434.4 375.867 465.867 383.2ZM264.267 464.133C281.733 466.933 302.667 469.733 310.8 470.133C324.933 471.067 325.467 471.2 324.667 473.867C319.6 491.2 318.4 516.4 321.867 532.8C329.467 569.867 355.733 603.867 390.667 621.867L402 627.733L397.333 628.667C394.8 629.067 328.8 629.333 250.667 629.067L108.667 628.667L103.067 625.733C89.6 618.533 82.8 600.667 88.5333 587.6C89.6 585.2 107.2 557.467 127.6 526C168.533 463.067 165.733 466.267 182.933 462C205.467 456.4 219.6 456.667 264.267 464.133Z" fill="#4392F1"/>
<path d="M430.667 437.067C423.867 440.4 420 446.933 420 455.067C420 460.933 420.533 462.267 425.067 466.667C434.4 476.133 447.2 476.4 456.8 467.6C464.533 460.533 464.933 449.067 457.733 441.067C452.133 434.667 439.2 432.8 430.667 437.067ZM449.2 448.8C452.8 453.333 452.667 455.733 449.067 459.6C444.933 464 437.067 463.867 433.467 459.2C431.867 457.2 430.667 454.933 430.667 454C430.667 453.067 431.867 450.8 433.467 448.8C435.6 446.133 437.333 445.333 441.333 445.333C445.333 445.333 447.067 446.133 449.2 448.8Z" fill="#4392F1"/>
<path d="M463.333 484C456.267 487.6 453.067 492.4 452.267 499.867C451.6 507.733 455.6 514.133 464 518.267C471.2 522 476.267 522.133 483.467 518.8C503.067 509.867 497.467 483.333 475.733 481.733C470.4 481.333 467.333 481.867 463.333 484ZM480.533 494.8C485.2 498.533 485.2 504.133 480.533 507.867C478.533 509.467 475.6 510.667 474 510.667C469.2 510.667 464 505.733 464 501.2C464 492.933 473.467 489.2 480.533 494.8Z" fill="#4392F1"/>
<path d="M405.867 516.533C388.8 524.533 382.933 544.667 393.733 559.067C404.933 574 428.533 576.533 442.667 564.267C457.067 552 457.067 533.333 442.667 521.067C432.933 512.667 418 510.8 405.867 516.533ZM429.733 525.467C431.333 526.267 434.267 528.533 436.4 530.4C448.8 542 438.933 561.333 420.533 561.333C399.6 561.333 392.4 535.6 410.667 526.4C416 523.733 425.467 523.333 429.733 525.467Z" fill="#4392F1"/>
</svg>
